<mxfile host="app.diagrams.net" modified="2023-08-09T05:53:56.289Z" agent="Mozilla/5.0 (Windows NT 10.0; Win64; x64) AppleWebKit/537.36 (KHTML, like Gecko) Chrome/115.0.0.0 Safari/537.36" etag="ghzL3D6382NKUTJm3bMh" version="21.6.7" type="github">
  <diagram name="페이지-1" id="gP_FsW-e4ahrzIUgB0NJ">
    <mxGraphModel dx="2607" dy="1425" grid="1" gridSize="10" guides="1" tooltips="1" connect="1" arrows="1" fold="1" page="1" pageScale="1" pageWidth="827" pageHeight="1169" math="0" shadow="0">
      <root>
        <mxCell id="0" />
        <mxCell id="1" parent="0" />
        <mxCell id="8foGVOfR6HrT8L_Vg9_Q-1" value="교수 로그인" style="ellipse;whiteSpace=wrap;html=1;" vertex="1" parent="1">
          <mxGeometry x="260" y="90" width="120" height="80" as="geometry" />
        </mxCell>
        <mxCell id="8foGVOfR6HrT8L_Vg9_Q-7" value="" style="edgeStyle=orthogonalEdgeStyle;rounded=0;orthogonalLoop=1;jettySize=auto;html=1;exitX=0.5;exitY=1;exitDx=0;exitDy=0;exitPerimeter=0;entryX=0.5;entryY=0;entryDx=0;entryDy=0;" edge="1" parent="1" source="8foGVOfR6HrT8L_Vg9_Q-1" target="8foGVOfR6HrT8L_Vg9_Q-8">
          <mxGeometry relative="1" as="geometry">
            <mxPoint x="320" y="320" as="sourcePoint" />
            <mxPoint x="320" y="370" as="targetPoint" />
          </mxGeometry>
        </mxCell>
        <mxCell id="8foGVOfR6HrT8L_Vg9_Q-8" value="교수 프로필 입력/수정" style="shape=parallelogram;perimeter=parallelogramPerimeter;whiteSpace=wrap;html=1;fixedSize=1;" vertex="1" parent="1">
          <mxGeometry x="230" y="450" width="180" height="60" as="geometry" />
        </mxCell>
        <mxCell id="8foGVOfR6HrT8L_Vg9_Q-20" style="edgeStyle=orthogonalEdgeStyle;rounded=0;orthogonalLoop=1;jettySize=auto;html=1;exitX=0;exitY=0.5;exitDx=0;exitDy=0;" edge="1" parent="1" source="8foGVOfR6HrT8L_Vg9_Q-9" target="8foGVOfR6HrT8L_Vg9_Q-19">
          <mxGeometry relative="1" as="geometry" />
        </mxCell>
        <mxCell id="8foGVOfR6HrT8L_Vg9_Q-36" style="edgeStyle=orthogonalEdgeStyle;rounded=0;orthogonalLoop=1;jettySize=auto;html=1;exitX=1;exitY=0.5;exitDx=0;exitDy=0;entryX=0.335;entryY=1.05;entryDx=0;entryDy=0;entryPerimeter=0;" edge="1" parent="1" source="8foGVOfR6HrT8L_Vg9_Q-9" target="8foGVOfR6HrT8L_Vg9_Q-31">
          <mxGeometry relative="1" as="geometry" />
        </mxCell>
        <mxCell id="8foGVOfR6HrT8L_Vg9_Q-50" style="edgeStyle=orthogonalEdgeStyle;rounded=0;orthogonalLoop=1;jettySize=auto;html=1;entryX=0;entryY=0.5;entryDx=0;entryDy=0;" edge="1" parent="1" source="8foGVOfR6HrT8L_Vg9_Q-9" target="8foGVOfR6HrT8L_Vg9_Q-44">
          <mxGeometry relative="1" as="geometry">
            <Array as="points">
              <mxPoint x="390" y="300" />
            </Array>
          </mxGeometry>
        </mxCell>
        <mxCell id="8foGVOfR6HrT8L_Vg9_Q-9" value="교수 마이페이지" style="rounded=0;whiteSpace=wrap;html=1;" vertex="1" parent="1">
          <mxGeometry x="270" y="220" width="120" height="60" as="geometry" />
        </mxCell>
        <mxCell id="8foGVOfR6HrT8L_Vg9_Q-17" style="edgeStyle=orthogonalEdgeStyle;rounded=0;orthogonalLoop=1;jettySize=auto;html=1;entryX=0;entryY=0.5;entryDx=0;entryDy=0;" edge="1" parent="1" source="8foGVOfR6HrT8L_Vg9_Q-11" target="8foGVOfR6HrT8L_Vg9_Q-14">
          <mxGeometry relative="1" as="geometry">
            <Array as="points">
              <mxPoint x="95" y="650" />
            </Array>
          </mxGeometry>
        </mxCell>
        <mxCell id="8foGVOfR6HrT8L_Vg9_Q-11" value="수정입력&lt;br&gt;작성완료" style="rhombus;whiteSpace=wrap;html=1;" vertex="1" parent="1">
          <mxGeometry x="70" y="435" width="110" height="90" as="geometry" />
        </mxCell>
        <mxCell id="8foGVOfR6HrT8L_Vg9_Q-12" value="" style="endArrow=classic;html=1;rounded=0;entryX=1;entryY=0.5;entryDx=0;entryDy=0;" edge="1" parent="1" source="8foGVOfR6HrT8L_Vg9_Q-8" target="8foGVOfR6HrT8L_Vg9_Q-11">
          <mxGeometry width="50" height="50" relative="1" as="geometry">
            <mxPoint x="390" y="430" as="sourcePoint" />
            <mxPoint x="440" y="380" as="targetPoint" />
          </mxGeometry>
        </mxCell>
        <mxCell id="8foGVOfR6HrT8L_Vg9_Q-14" value="교수 마이페이지" style="rounded=0;whiteSpace=wrap;html=1;" vertex="1" parent="1">
          <mxGeometry x="260" y="620" width="120" height="60" as="geometry" />
        </mxCell>
        <mxCell id="8foGVOfR6HrT8L_Vg9_Q-19" value="공지사항" style="rounded=1;whiteSpace=wrap;html=1;" vertex="1" parent="1">
          <mxGeometry x="35" y="300" width="120" height="60" as="geometry" />
        </mxCell>
        <mxCell id="8foGVOfR6HrT8L_Vg9_Q-23" style="edgeStyle=orthogonalEdgeStyle;rounded=0;orthogonalLoop=1;jettySize=auto;html=1;entryX=0;entryY=0.5;entryDx=0;entryDy=0;exitX=1;exitY=0.621;exitDx=0;exitDy=0;exitPerimeter=0;" edge="1" parent="1" source="8foGVOfR6HrT8L_Vg9_Q-44" target="8foGVOfR6HrT8L_Vg9_Q-22">
          <mxGeometry relative="1" as="geometry">
            <mxPoint x="660" y="390" as="sourcePoint" />
            <Array as="points">
              <mxPoint x="690" y="300" />
            </Array>
          </mxGeometry>
        </mxCell>
        <mxCell id="8foGVOfR6HrT8L_Vg9_Q-25" value="" style="edgeStyle=orthogonalEdgeStyle;rounded=0;orthogonalLoop=1;jettySize=auto;html=1;" edge="1" parent="1" source="8foGVOfR6HrT8L_Vg9_Q-22" target="8foGVOfR6HrT8L_Vg9_Q-24">
          <mxGeometry relative="1" as="geometry" />
        </mxCell>
        <mxCell id="8foGVOfR6HrT8L_Vg9_Q-22" value="강의신청" style="shape=parallelogram;perimeter=parallelogramPerimeter;whiteSpace=wrap;html=1;fixedSize=1;" vertex="1" parent="1">
          <mxGeometry x="740" y="270" width="180" height="60" as="geometry" />
        </mxCell>
        <mxCell id="8foGVOfR6HrT8L_Vg9_Q-29" value="" style="edgeStyle=orthogonalEdgeStyle;rounded=0;orthogonalLoop=1;jettySize=auto;html=1;" edge="1" parent="1" source="8foGVOfR6HrT8L_Vg9_Q-24" target="8foGVOfR6HrT8L_Vg9_Q-27">
          <mxGeometry relative="1" as="geometry" />
        </mxCell>
        <mxCell id="8foGVOfR6HrT8L_Vg9_Q-24" value="교수 강의 신청 내용작성" style="rhombus;whiteSpace=wrap;html=1;" vertex="1" parent="1">
          <mxGeometry x="937.5" y="248.75" width="145" height="102.5" as="geometry" />
        </mxCell>
        <mxCell id="8foGVOfR6HrT8L_Vg9_Q-49" style="edgeStyle=orthogonalEdgeStyle;rounded=0;orthogonalLoop=1;jettySize=auto;html=1;exitX=0;exitY=0.5;exitDx=0;exitDy=0;entryX=0.45;entryY=0.971;entryDx=0;entryDy=0;entryPerimeter=0;" edge="1" parent="1" source="8foGVOfR6HrT8L_Vg9_Q-27" target="8foGVOfR6HrT8L_Vg9_Q-44">
          <mxGeometry relative="1" as="geometry">
            <mxPoint x="520" y="420" as="targetPoint" />
          </mxGeometry>
        </mxCell>
        <mxCell id="8foGVOfR6HrT8L_Vg9_Q-51" style="edgeStyle=orthogonalEdgeStyle;rounded=0;orthogonalLoop=1;jettySize=auto;html=1;entryX=0.5;entryY=0;entryDx=0;entryDy=0;" edge="1" parent="1" source="8foGVOfR6HrT8L_Vg9_Q-27" target="8foGVOfR6HrT8L_Vg9_Q-40">
          <mxGeometry relative="1" as="geometry" />
        </mxCell>
        <mxCell id="8foGVOfR6HrT8L_Vg9_Q-52" style="edgeStyle=orthogonalEdgeStyle;rounded=0;orthogonalLoop=1;jettySize=auto;html=1;entryX=0.5;entryY=0;entryDx=0;entryDy=0;" edge="1" parent="1" source="8foGVOfR6HrT8L_Vg9_Q-27" target="8foGVOfR6HrT8L_Vg9_Q-39">
          <mxGeometry relative="1" as="geometry">
            <Array as="points">
              <mxPoint x="1010" y="520" />
              <mxPoint x="780" y="520" />
            </Array>
          </mxGeometry>
        </mxCell>
        <mxCell id="8foGVOfR6HrT8L_Vg9_Q-53" style="edgeStyle=orthogonalEdgeStyle;rounded=0;orthogonalLoop=1;jettySize=auto;html=1;entryX=0.5;entryY=0;entryDx=0;entryDy=0;" edge="1" parent="1" source="8foGVOfR6HrT8L_Vg9_Q-27" target="8foGVOfR6HrT8L_Vg9_Q-37">
          <mxGeometry relative="1" as="geometry">
            <Array as="points">
              <mxPoint x="1010" y="520" />
              <mxPoint x="1230" y="520" />
            </Array>
          </mxGeometry>
        </mxCell>
        <mxCell id="8foGVOfR6HrT8L_Vg9_Q-27" value="교수 강의리스트" style="shape=parallelogram;perimeter=parallelogramPerimeter;whiteSpace=wrap;html=1;fixedSize=1;" vertex="1" parent="1">
          <mxGeometry x="920" y="430" width="180" height="60" as="geometry" />
        </mxCell>
        <mxCell id="8foGVOfR6HrT8L_Vg9_Q-31" value="상세보기 클릭시&lt;br&gt;전체 프로필 정보출력" style="shape=parallelogram;perimeter=parallelogramPerimeter;whiteSpace=wrap;html=1;fixedSize=1;" vertex="1" parent="1">
          <mxGeometry x="440" y="130" width="170" height="60" as="geometry" />
        </mxCell>
        <mxCell id="8foGVOfR6HrT8L_Vg9_Q-37" value="본인이 담당하는 강의 출력" style="shape=parallelogram;perimeter=parallelogramPerimeter;whiteSpace=wrap;html=1;fixedSize=1;" vertex="1" parent="1">
          <mxGeometry x="1140" y="555" width="180" height="60" as="geometry" />
        </mxCell>
        <mxCell id="8foGVOfR6HrT8L_Vg9_Q-39" value="원하는 강의 선택 시 해당 &lt;br&gt;수업의 학생 리스트 출력" style="shape=parallelogram;perimeter=parallelogramPerimeter;whiteSpace=wrap;html=1;fixedSize=1;" vertex="1" parent="1">
          <mxGeometry x="680" y="560" width="200" height="60" as="geometry" />
        </mxCell>
        <mxCell id="8foGVOfR6HrT8L_Vg9_Q-40" value="강의 예정, 강의 중, 강의 종료&lt;br&gt;&amp;nbsp;리스트 출력" style="shape=parallelogram;perimeter=parallelogramPerimeter;whiteSpace=wrap;html=1;fixedSize=1;" vertex="1" parent="1">
          <mxGeometry x="910" y="555" width="200" height="60" as="geometry" />
        </mxCell>
        <mxCell id="8foGVOfR6HrT8L_Vg9_Q-44" value="강의 관리" style="rounded=0;whiteSpace=wrap;html=1;" vertex="1" parent="1">
          <mxGeometry x="570" y="270" width="120" height="60" as="geometry" />
        </mxCell>
      </root>
    </mxGraphModel>
  </diagram>
</mxfile>
